<svg width="29" height="21" viewBox="0 0 29 21" fill="none" xmlns="http://www.w3.org/2000/svg">
<path d="M0.616317 19.4898L0.616076 19.4895C0.272612 19.1324 0.1 18.69 0.1 18.1556C0.1 17.6211 0.272617 17.178 0.616197 16.8195C0.958226 16.4626 1.3802 16.2847 1.88889 16.2847C2.39757 16.2847 2.82024 16.4626 3.16357 16.8196C3.50579 17.1781 3.67778 17.6211 3.67778 18.1556C3.67778 18.6902 3.50572 19.1325 3.16347 19.4896C2.82011 19.8479 2.39746 20.0264 1.88889 20.0264C1.38032 20.0264 0.958376 19.8479 0.616317 19.4898ZM0.616317 11.6062L0.616076 11.606C0.272612 11.2489 0.1 10.8065 0.1 10.272C0.1 9.73755 0.272617 9.29449 0.616197 8.93599C0.958225 8.57912 1.3802 8.40116 1.88889 8.40116C2.39757 8.40116 2.82024 8.57912 3.16357 8.9361C3.50579 9.29453 3.67778 9.73756 3.67778 10.272C3.67778 10.8066 3.50572 11.249 3.16347 11.6061C2.82011 11.9644 2.39746 12.1429 1.88889 12.1429C1.38032 12.1429 0.958376 11.9644 0.616317 11.6062ZM0.616317 3.72271L0.616076 3.72246C0.272612 3.36533 0.1 2.923 0.1 2.38851C0.1 1.85403 0.272617 1.41096 0.616197 1.05247C0.958226 0.695594 1.38021 0.517633 1.88889 0.517633C2.39751 0.517633 2.82015 0.695559 3.16346 1.05246C3.50575 1.41091 3.67778 1.85398 3.67778 2.38851C3.67778 2.9231 3.50572 3.36548 3.16347 3.72259C2.82011 4.08085 2.39746 4.25939 1.88889 4.25939C1.38032 4.25939 0.958376 4.08086 0.616317 3.72271ZM9.52643 20.0264C8.49318 20.0264 7.65556 19.1888 7.65556 18.1556C7.65556 17.1223 8.49318 16.2847 9.52644 16.2847H27.0291C28.0624 16.2847 28.9 17.1223 28.9 18.1556C28.9 19.1888 28.0624 20.0264 27.0291 20.0264H9.52643ZM9.52643 12.1429C8.49318 12.1429 7.65556 11.3053 7.65556 10.272C7.65556 9.23878 8.49318 8.40116 9.52644 8.40116H20.7778H27.0291C28.0624 8.40116 28.9 9.23878 28.9 10.272C28.9 11.3053 28.0624 12.1429 27.0291 12.1429H9.52643ZM9.52643 4.25939C8.49318 4.25939 7.65556 3.42177 7.65556 2.38851C7.65556 1.35525 8.49318 0.517633 9.52644 0.517633H27.0291C28.0624 0.517633 28.9 1.35525 28.9 2.38851C28.9 3.42177 28.0624 4.25939 27.0291 4.25939H9.52643Z" fill="#505558" stroke="#F1F3F4" stroke-width="0.2"/>
</svg>
