<svg width="26" height="26" viewBox="0 0 26 26" fill="none" xmlns="http://www.w3.org/2000/svg">
<mask id="mask0_40_128" style="mask-type:alpha" maskUnits="userSpaceOnUse" x="0" y="0" width="26" height="26">
<rect width="26" height="26" fill="#D9D9D9"/>
</mask>
<g mask="url(#mask0_40_128)">
<path d="M18.4167 23.8333C16.9181 23.8333 15.6408 23.3054 14.5849 22.2495C13.5283 21.1929 13 19.9153 13 18.4167C13 16.9181 13.5283 15.6405 14.5849 14.5838C15.6408 13.528 16.9181 13 18.4167 13C19.9153 13 21.1929 13.528 22.2495 14.5838C23.3054 15.6405 23.8333 16.9181 23.8333 18.4167C23.8333 19.9153 23.3054 21.1929 22.2495 22.2495C21.1929 23.3054 19.9153 23.8333 18.4167 23.8333ZM20.2312 20.9896L20.9896 20.2313L18.9583 18.2V15.1667H17.875V18.6333L20.2312 20.9896ZM5.41667 22.75C4.82083 22.75 4.31058 22.538 3.88592 22.1141C3.46197 21.6894 3.25 21.1792 3.25 20.5833V5.41668C3.25 4.82084 3.46197 4.31059 3.88592 3.88593C4.31058 3.46198 4.82083 3.25001 5.41667 3.25001H9.93958C10.1382 2.61807 10.5264 2.09879 11.1042 1.69218C11.6819 1.28629 12.3139 1.08334 13 1.08334C13.7222 1.08334 14.3679 1.28629 14.937 1.69218C15.5054 2.09879 15.8889 2.61807 16.0875 3.25001H20.5833C21.1792 3.25001 21.6894 3.46198 22.1141 3.88593C22.538 4.31059 22.75 4.82084 22.75 5.41668V12.1875C22.425 11.9528 22.0819 11.7542 21.7208 11.5917C21.3597 11.4292 20.9806 11.2847 20.5833 11.1583V5.41668H18.4167V8.66668H7.58333V5.41668H5.41667V20.5833H11.1583C11.2847 20.9806 11.4292 21.3597 11.5917 21.7208C11.7542 22.082 11.9528 22.425 12.1875 22.75H5.41667ZM13 5.41668C13.3069 5.41668 13.5644 5.31268 13.7724 5.10468C13.9797 4.8974 14.0833 4.64029 14.0833 4.33334C14.0833 4.0264 13.9797 3.76893 13.7724 3.56093C13.5644 3.35365 13.3069 3.25001 13 3.25001C12.6931 3.25001 12.4359 3.35365 12.2287 3.56093C12.0207 3.76893 11.9167 4.0264 11.9167 4.33334C11.9167 4.64029 12.0207 4.8974 12.2287 5.10468C12.4359 5.31268 12.6931 5.41668 13 5.41668Z" fill="#505558"/>
</g>
</svg>
