<svg width="20" height="20" viewBox="0 0 20 20" fill="none" xmlns="http://www.w3.org/2000/svg">
<path d="M9.08325 14.5834H10.9166V10.9167H14.5833V9.08337H10.9166V5.41671H9.08325V9.08337H5.41658V10.9167H9.08325V14.5834ZM9.99992 19.1667C8.73186 19.1667 7.5402 18.9259 6.42492 18.4444C5.30964 17.9634 4.3395 17.3105 3.5145 16.4855C2.6895 15.6605 2.03653 14.6903 1.55559 13.575C1.07403 12.4598 0.833252 11.2681 0.833252 10C0.833252 8.73198 1.07403 7.54032 1.55559 6.42504C2.03653 5.30976 2.6895 4.33962 3.5145 3.51462C4.3395 2.68962 5.30964 2.03635 6.42492 1.55479C7.5402 1.07385 8.73186 0.833374 9.99992 0.833374C11.268 0.833374 12.4596 1.07385 13.5749 1.55479C14.6902 2.03635 15.6603 2.68962 16.4853 3.51462C17.3103 4.33962 17.9633 5.30976 18.4443 6.42504C18.9258 7.54032 19.1666 8.73198 19.1666 10C19.1666 11.2681 18.9258 12.4598 18.4443 13.575C17.9633 14.6903 17.3103 15.6605 16.4853 16.4855C15.6603 17.3105 14.6902 17.9634 13.5749 18.4444C12.4596 18.9259 11.268 19.1667 9.99992 19.1667ZM9.99992 17.3334C12.0471 17.3334 13.7812 16.623 15.202 15.2021C16.6228 13.7813 17.3333 12.0473 17.3333 10C17.3333 7.95282 16.6228 6.21879 15.202 4.79796C13.7812 3.37712 12.0471 2.66671 9.99992 2.66671C7.9527 2.66671 6.21867 3.37712 4.79783 4.79796C3.377 6.21879 2.66659 7.95282 2.66659 10C2.66659 12.0473 3.377 13.7813 4.79783 15.2021C6.21867 16.623 7.9527 17.3334 9.99992 17.3334Z" fill="#00A3FF"/>
</svg>
