<svg width="127" height="23" viewBox="0 0 127 23" fill="none" xmlns="http://www.w3.org/2000/svg">
<path d="M55.1588 19.711H51.0572C48.0085 19.711 45.5241 17.1802 45.5241 14.0588V1.65765C45.5241 0.933549 44.946 0.343018 44.2371 0.343018C43.5283 0.343018 42.9502 0.933549 42.9502 1.65765V14.3541C42.9502 18.7549 46.4531 22.3333 50.7613 22.3333H55.152C55.8608 22.3333 56.4389 21.7427 56.4389 21.0186C56.4389 20.3016 55.8608 19.711 55.1588 19.711Z" fill="#505558"/>
<path d="M69.2601 6.24824H69.1706C68.8334 6.24824 68.5237 6.38181 68.2828 6.62084C68.042 6.85986 67.9112 7.18325 67.9112 7.52772V16.1818C67.9112 18.1292 66.1288 19.7109 63.9403 19.7109C61.7312 19.7109 59.9419 18.1292 59.9419 16.1818V7.55584V7.52772C59.9419 7.18325 59.8111 6.85986 59.5771 6.62084C59.3431 6.37478 59.0266 6.24121 58.6893 6.24121H58.6274C57.9323 6.24121 57.3749 6.81768 57.3749 7.52069V16.1748C57.3749 19.5703 60.3204 22.3261 63.9472 22.3261C67.5533 22.3261 70.4851 19.5703 70.4851 16.1748V7.55584V7.51366C70.4851 6.82471 69.9483 6.24824 69.2601 6.24824Z" fill="#505558"/>
<path d="M84.7998 17.7565L84.786 17.7495C84.2286 17.3207 83.4303 17.4402 83.0036 18.0096C82.4255 18.79 81.3038 19.7179 79.2529 19.7179C76.6653 19.7179 74.5594 17.2785 74.5594 14.2836C74.5594 11.2888 76.6653 8.84935 79.2529 8.84935C81.3038 8.84935 82.4255 9.77733 83.0036 10.5577C83.4303 11.1271 84.2286 11.2466 84.786 10.8178L84.7998 10.8108C85.0751 10.5999 85.254 10.2905 85.2953 9.94605C85.3435 9.60158 85.254 9.25007 85.0476 8.97589C84.1116 7.72453 82.3429 6.22711 79.2529 6.22711C77.2984 6.22711 75.4678 7.07073 74.0914 8.6033C72.7357 10.1148 71.9924 12.1324 71.9924 14.2836C71.9924 16.4349 72.7357 18.4525 74.0914 19.964C75.461 21.4966 77.2916 22.3402 79.2529 22.3402C82.3429 22.3402 84.1116 20.8498 85.0476 19.5914C85.254 19.3102 85.3435 18.9657 85.2953 18.6212C85.2471 18.2697 85.0682 17.9674 84.7998 17.7565Z" fill="#505558"/>
<path d="M93.7192 6.22055C91.7372 6.22055 89.8929 7.06417 88.5096 8.59674C87.1469 10.1082 86.4037 12.1259 86.4037 14.2841C86.4037 16.4353 87.1538 18.46 88.5096 19.9715C89.886 21.5041 91.7372 22.3477 93.7124 22.3477H93.8018C96.3 22.3477 98.337 21.3353 99.8511 19.3458C100.064 19.0646 100.154 18.7201 100.106 18.3686C100.058 18.0171 99.8786 17.7078 99.6033 17.4899C99.039 17.061 98.2613 17.1665 97.8209 17.7289C96.7748 19.0716 95.4604 19.7254 93.7949 19.7254H93.7124C91.4757 19.7254 89.6107 18.0452 89.1014 15.5987H100.044C100.594 15.5987 101.042 15.1418 101.042 14.5794V14.2841C101.042 12.1329 100.292 10.1152 98.922 8.59674C97.5387 7.05714 95.6944 6.22055 93.7192 6.22055ZM89.1083 12.9695C89.6245 10.523 91.4826 8.84279 93.7192 8.84279C95.9628 8.84279 97.9172 10.5933 98.3715 12.9695H89.1083Z" fill="#505558"/>
<path d="M109.575 6.22055C108.157 6.22055 106.794 6.70563 105.686 7.60549V7.53519C105.686 6.81108 105.108 6.22055 104.399 6.22055C103.691 6.22055 103.112 6.81108 103.112 7.53519V21.033C103.112 21.7571 103.691 22.3477 104.399 22.3477C105.108 22.3477 105.686 21.7571 105.686 21.033V13.1312C105.686 10.762 107.427 8.83576 109.575 8.83576C111.715 8.83576 113.463 10.762 113.463 13.1312V21.0612C113.463 21.4056 113.621 21.736 113.862 21.9821C114.103 22.2282 114.42 22.3617 114.764 22.3617C115.459 22.3617 116.03 21.7782 116.03 21.0682V13.1241C116.03 9.32084 113.133 6.22055 109.575 6.22055Z" fill="#505558"/>
<path d="M125.713 19.7113C122.974 19.7113 122.644 18.5162 122.63 17.6164V8.84275H125.713C126.422 8.84275 127 8.25222 127 7.52812C127 6.80401 126.422 6.21348 125.713 6.21348H122.63V4.15366C122.63 3.42955 122.052 2.83902 121.343 2.83902C120.634 2.83902 120.056 3.42955 120.056 4.15366V6.21348H118.81C118.102 6.21348 117.524 6.80401 117.524 7.52812C117.524 8.25222 118.102 8.84275 118.81 8.84275H120.056V17.6374C120.091 20.6253 122.155 22.3406 125.706 22.3406C126.415 22.3406 126.993 21.7501 126.993 21.026C127 20.3019 126.422 19.7113 125.713 19.7113Z" fill="#505558"/>
<path d="M12.5872 0.351135C11.8783 0.351135 11.2933 0.941668 11.2933 1.6728V13.9826C11.2933 17.1391 8.78142 19.7051 5.6914 19.7051H1.29381C0.584969 19.7051 0 20.2956 0 21.0268C0 21.7579 0.578087 22.3484 1.29381 22.3484H5.98733C10.3436 22.3484 13.881 18.7279 13.881 14.2849V1.67983C13.881 0.941666 13.3029 0.351135 12.5872 0.351135Z" fill="#00A3FF"/>
<path d="M34.2723 2.58611C34.5958 2.27678 34.7403 1.81982 34.6508 1.39099C34.5201 0.765304 34.0177 0.350525 33.4052 0.350525H33.3777C33.0404 0.350525 32.7239 0.484099 32.4899 0.723123L23.0409 9.95368L22.745 10.256C22.4766 10.5302 22.2977 10.8957 22.2839 11.2824C22.2633 11.7042 22.4215 12.1049 22.7106 12.4072L23.0409 12.7446L32.4761 21.9682C32.717 22.2142 33.0473 22.3478 33.3845 22.3478C33.4121 22.3478 33.4396 22.3478 33.4671 22.3478C33.9557 22.3197 34.3893 21.9893 34.5682 21.5183C34.7609 21.0121 34.6439 20.4708 34.2586 20.0982L25.7799 11.8026C25.5253 11.5495 25.5253 11.1347 25.7799 10.8817L34.2654 2.60017L34.2723 2.58611Z" fill="#00A3FF"/>
<path d="M19.5448 0.350525C18.8291 0.350525 18.251 0.941057 18.251 1.67219V21.0261C18.251 21.7502 18.8291 22.3478 19.5448 22.3478C20.2605 22.3478 20.8386 21.7573 20.8386 21.0261V1.66516C20.8386 0.941057 20.2536 0.350525 19.5448 0.350525Z" fill="#00A3FF"/>
</svg>
