<svg width="26" height="26" viewBox="0 0 26 26" fill="none" xmlns="http://www.w3.org/2000/svg">
<mask id="mask0_1_106" style="mask-type:alpha" maskUnits="userSpaceOnUse" x="0" y="0" width="26" height="26">
<rect width="26" height="26" fill="#D9D9D9"/>
</mask>
<g mask="url(#mask0_1_106)">
<path d="M3.2498 23.8335C2.65396 23.8335 2.14407 23.6215 1.72013 23.1976C1.29546 22.7729 1.08313 22.2627 1.08313 21.6668V6.50017C1.08313 5.90434 1.29546 5.39445 1.72013 4.97051C2.14407 4.54584 2.65396 4.33351 3.2498 4.33351H11.9165V6.50017H3.2498V21.6668H18.4165V15.1668H20.5831V21.6668C20.5831 22.2627 20.3712 22.7729 19.9472 23.1976C19.5225 23.6215 19.0123 23.8335 18.4165 23.8335H3.2498ZM5.41646 19.5002V11.9168H7.58313V19.5002H5.41646ZM9.7498 19.5002V8.66684H11.9165V19.5002H9.7498ZM14.0831 19.5002V15.1668H16.2498V19.5002H14.0831ZM19.4998 13.0002C18.922 13.0002 18.376 12.9189 17.8618 12.7564C17.3469 12.5939 16.8727 12.3592 16.4394 12.0523L16.0331 12.4314C15.8165 12.6481 15.5637 12.7564 15.2748 12.7564C14.9859 12.7564 14.7331 12.6481 14.5165 12.4314C14.2998 12.2148 14.1915 11.962 14.1915 11.6731C14.1915 11.3842 14.2998 11.1314 14.5165 10.9148L14.9498 10.4814C14.679 10.0661 14.467 9.61476 14.3139 9.12726C14.16 8.63976 14.0831 8.12517 14.0831 7.58351C14.0831 6.03073 14.6205 4.73976 15.6951 3.71059C16.7691 2.68142 18.0373 2.16684 19.4998 2.16684H24.9165V7.58351C24.9165 9.02795 24.4019 10.2918 23.3727 11.3752C22.3435 12.4585 21.0526 13.0002 19.4998 13.0002ZM19.4998 10.8335C20.4026 10.8335 21.1699 10.5175 21.8019 9.88559C22.4338 9.25365 22.7498 8.48628 22.7498 7.58351V4.33351H19.4998C18.6331 4.33351 17.8748 4.64045 17.2248 5.25434C16.5748 5.86823 16.2498 6.64462 16.2498 7.58351C16.2498 7.81823 16.2722 8.04826 16.317 8.27359C16.3625 8.49965 16.4304 8.71198 16.5206 8.91059L19.3373 6.09392C19.554 5.87726 19.8067 5.76892 20.0956 5.76892C20.3845 5.76892 20.6373 5.87726 20.854 6.09392C21.0706 6.31059 21.179 6.56806 21.179 6.86634C21.179 7.1639 21.0706 7.42101 20.854 7.63767L18.0373 10.4543C18.254 10.5627 18.4844 10.653 18.7285 10.7252C18.9719 10.7974 19.229 10.8335 19.4998 10.8335Z" fill="#191A1B"/>
</g>
</svg>
