<svg width="18" height="18" viewBox="0 0 18 18" fill="none" xmlns="http://www.w3.org/2000/svg">
<path d="M9 8C6.5 8 4.375 7.60833 2.625 6.825C0.875 6.04167 0 5.1 0 4C0 2.9 0.875 1.95833 2.625 1.175C4.375 0.391667 6.5 0 9 0C11.5 0 13.625 0.391667 15.375 1.175C17.125 1.95833 18 2.9 18 4C18 5.1 17.125 6.04167 15.375 6.825C13.625 7.60833 11.5 8 9 8ZM9 13C6.5 13 4.375 12.6083 2.625 11.825C0.875 11.0417 0 10.1 0 9V6.5C0 7.23333 0.341667 7.85417 1.025 8.3625C1.70833 8.87083 2.525 9.28333 3.475 9.6C4.425 9.91667 5.4125 10.1458 6.4375 10.2875C7.4625 10.4292 8.31667 10.5 9 10.5C9.68333 10.5 10.5375 10.4292 11.5625 10.2875C12.5875 10.1458 13.575 9.91667 14.525 9.6C15.475 9.28333 16.2917 8.87083 16.975 8.3625C17.6583 7.85417 18 7.23333 18 6.5V9C18 10.1 17.125 11.0417 15.375 11.825C13.625 12.6083 11.5 13 9 13ZM9 18C6.5 18 4.375 17.6083 2.625 16.825C0.875 16.0417 0 15.1 0 14V11.5C0 12.2333 0.341667 12.8542 1.025 13.3625C1.70833 13.8708 2.525 14.2833 3.475 14.6C4.425 14.9167 5.4125 15.1458 6.4375 15.2875C7.4625 15.4292 8.31667 15.5 9 15.5C9.68333 15.5 10.5375 15.4292 11.5625 15.2875C12.5875 15.1458 13.575 14.9167 14.525 14.6C15.475 14.2833 16.2917 13.8708 16.975 13.3625C17.6583 12.8542 18 12.2333 18 11.5V14C18 15.1 17.125 16.0417 15.375 16.825C13.625 17.6083 11.5 18 9 18Z" fill="#505558"/>
</svg>
