<svg width="69" height="69" viewBox="0 0 69 69" fill="none" xmlns="http://www.w3.org/2000/svg">
<path d="M69 34.5C69 53.5538 53.5538 69 34.5 69C15.4462 69 0 53.5538 0 34.5C0 15.4462 15.4462 0 34.5 0C53.5538 0 69 15.4462 69 34.5Z" fill="#0080C8"/>
<path d="M52.936 42.0178H56.5908C56.9508 42.0178 57.2314 42.3082 57.2314 42.633C57.2314 42.9639 56.9508 43.2542 56.5847 43.2542H52.6723C49.099 43.2542 46.2123 40.4157 46.2123 36.9492V26.1212C46.2123 25.7903 46.4928 25.5 46.859 25.5C47.2251 25.5 47.5057 25.7903 47.5057 26.1212V36.6974C47.5057 39.6465 49.9544 42.0178 52.936 42.0178Z" fill="white" stroke="white"/>
<path d="M22.5629 26.134C22.5629 25.7989 22.8479 25.5068 23.2158 25.5068C23.5863 25.5068 23.8686 25.7955 23.8686 26.14V36.8901C23.8686 40.3929 20.9509 43.267 17.335 43.267H13.1529C12.7806 43.267 12.5 42.9767 12.5 42.6399C12.5 42.3047 12.7849 42.0127 13.1529 42.0127H17.0713C20.0901 42.0127 22.5629 39.611 22.5629 36.6323V26.134Z" fill="white" stroke="white"/>
<path d="M42.1342 26.6047L42.2008 26.5438C42.3644 26.394 42.4269 26.1828 42.3871 26C42.3217 25.7003 42.0808 25.506 41.7657 25.506H41.7412C41.568 25.506 41.4124 25.5711 41.2997 25.6813L41.2917 25.6891L41.2916 25.689L32.8762 33.5574L32.6165 33.8113M42.1342 26.6047L32.6165 33.8113M42.1342 26.6047L42.1269 26.619L34.6299 33.622L34.6299 33.622L34.6266 33.6251C34.1925 34.0381 34.1925 34.7222 34.6266 35.1351L34.6295 35.1378L42.1843 42.2126L42.1865 42.2146C42.3786 42.3923 42.4325 42.6349 42.3374 42.8739L42.3373 42.8743C42.2506 43.0928 42.0394 43.2487 41.805 43.2662H41.8049H41.8048H41.8047H41.8045H41.8044H41.8042H41.8041H41.8039H41.8038H41.8036H41.8035H41.8034H41.8032H41.8031H41.8029H41.8028H41.8026H41.8025H41.8024H41.8022H41.8021H41.8019H41.8018H41.8016H41.8015H41.8013H41.8012H41.8011H41.8009H41.8008H41.8006H41.8005H41.8003H41.8002H41.8001H41.7999H41.7998H41.7996H41.7995H41.7993H41.7992H41.799H41.7989H41.7988H41.7986H41.7985H41.7983H41.7982H41.798H41.7979H41.7978H41.7976H41.7975H41.7973H41.7972H41.797H41.7969H41.7967H41.7966H41.7965H41.7963H41.7962H41.796H41.7959H41.7957H41.7956H41.7955H41.7953H41.7952H41.795H41.7949H41.7947H41.7946H41.7944H41.7943H41.7942H41.794H41.7939H41.7937H41.7936H41.7934H41.7933H41.7932H41.793H41.7929H41.7927H41.7926H41.7924H41.7923H41.7922H41.792H41.7919H41.7917H41.7916H41.7914H41.7913H41.7911H41.791H41.7909H41.7907H41.7906H41.7904H41.7903H41.7901H41.79H41.7899H41.7897H41.7896H41.7894H41.7893H41.7891H41.789H41.7888H41.7887H41.7886H41.7884H41.7883H41.7881H41.788H41.7878H41.7877H41.7876H41.7874H41.7873H41.7871H41.787H41.7868H41.7867H41.7865H41.7864H41.7863H41.7861H41.786H41.7858H41.7857H41.7855H41.7854H41.7853H41.7851H41.785H41.7848H41.7847H41.7845H41.7844H41.7842H41.7841H41.784H41.7838H41.7837H41.7835H41.7834H41.7832H41.7831H41.783H41.7828H41.7827H41.7825H41.7824H41.7822H41.7821H41.7819H41.7818H41.7817H41.7815H41.7814H41.7812H41.7811H41.7809H41.7808H41.7807H41.7805H41.7804H41.7802H41.7801H41.7799H41.7798H41.7796H41.7795H41.7794H41.7792H41.7791H41.7789H41.7788H41.7786H41.7785H41.7784H41.7782H41.7781H41.7779H41.7778H41.7776H41.7775H41.7773H41.7772H41.7771H41.7769H41.7768H41.7766H41.7765H41.7763H41.7762H41.7761H41.7759H41.7758H41.7756H41.7755H41.7753H41.7752H41.775H41.7749H41.7748H41.7746H41.7745H41.7743H41.7742H41.774H41.7739H41.7738H41.7736H41.7735H41.7733H41.7732H41.773H41.7729H41.7727H41.7726H41.7725H41.7723H41.7722H41.772H41.7719H41.7717H41.7716H41.7715H41.7713H41.7712H41.771H41.7709H41.7707H41.7706H41.7704H41.7703H41.7702H41.77H41.7699H41.7697H41.7696H41.7694H41.7693H41.7692H41.769H41.7689H41.7687H41.7686H41.7684H41.7683H41.7681H41.768H41.7679H41.7677H41.7676H41.7674H41.7673H41.7671H41.767H41.7669H41.7667H41.7666H41.7664H41.7663H41.7661H41.766H41.7659H41.7657H41.7656H41.7654H41.7653H41.7651H41.765H41.7648H41.7647H41.7646H41.7644H41.7643H41.7641H41.764H41.7638H41.7637H41.7636H41.7634H41.7633H41.7631H41.763H41.7628H41.7627H41.7625H41.7624H41.7623H41.7621H41.762H41.7618H41.7617H41.7615H41.7614H41.7613H41.7611H41.761H41.7608H41.7607H41.7605H41.7604H41.7602H41.7601H41.76H41.7598H41.7597H41.7595H41.7594H41.7592H41.7591H41.759H41.7588H41.7587H41.7585H41.7584H41.7582H41.7581H41.7579H41.7578H41.7577H41.7575H41.7574H41.7572H41.7571H41.7569H41.7568H41.7567H41.7565H41.7564H41.7562H41.7561H41.7559H41.7558H41.7556H41.7555H41.7554H41.7552H41.7551H41.7549H41.7548H41.7546H41.7545H41.7544H41.7542H41.7541H41.7539H41.7538H41.7536H41.7535H41.7533H41.7532H41.7531H41.7529H41.7528H41.7526H41.7525H41.7523H41.7522H41.7521H41.7519H41.7518H41.7516H41.7515H41.7513H41.7512H41.751H41.7509H41.7508H41.7506H41.7505H41.7503H41.7502H41.75H41.7499H41.7498H41.7496H41.7495H41.7493H41.7492H41.749H41.7489H41.7487H41.7486H41.7485H41.7483H41.7482H41.748H41.7479H41.7477H41.7476H41.7475H41.7473C41.5705 43.2662 41.4037 43.1987 41.2874 43.0849L41.2875 43.0848L41.2795 43.0773L32.8762 35.2149L32.5882 34.9332M42.1342 26.6047L32.5882 34.9332M32.6165 33.8113C32.4525 33.9717 32.3624 34.1673 32.3557 34.3477L32.3555 34.3547L32.3554 34.3547C32.3448 34.5623 32.4244 34.7683 32.5882 34.9332M32.6165 33.8113L32.5882 34.9332" fill="white" stroke="white"/>
<path d="M28.7625 26.1332C28.7625 25.7963 29.043 25.506 29.4153 25.506C29.785 25.506 30.0682 25.7998 30.0682 26.1272V42.639C30.0682 42.9759 29.7876 43.2662 29.4153 43.2662C29.0448 43.2662 28.7625 42.9716 28.7625 42.639V26.1332Z" fill="white" stroke="white"/>
</svg>
